<?xml version="1.0" standalone="no"?>
<!DOCTYPE svg PUBLIC "-//W3C//DTD SVG 20010904//EN"
 "http://www.w3.org/TR/2001/REC-SVG-20010904/DTD/svg10.dtd">
<svg version="1.0" xmlns="http://www.w3.org/2000/svg"
 width="260.000000pt" height="260.000000pt" viewBox="0 0 260.000000 260.000000"
 preserveAspectRatio="xMidYMid meet">
<metadata>
Created by potrace 1.14, written by Peter Selinger 2001-2017
</metadata>
<g transform="translate(0.000000,260.000000) scale(0.100000,-0.100000)"
fill="#000000" stroke="none">
<path d="M577 1833 c-2 -5 -10 -26 -16 -48 -7 -22 -18 -56 -26 -75 -7 -19 -28
-75 -45 -125 -18 -49 -40 -112 -50 -140 -10 -27 -35 -97 -55 -155 -20 -58 -41
-114 -45 -125 -5 -11 -34 -92 -65 -180 -31 -88 -59 -167 -62 -175 -3 -8 -18
-50 -33 -92 l-28 -78 132 0 132 0 40 123 40 122 223 0 223 0 37 -120 37 -120
137 -3 c75 -1 137 0 137 2 0 3 -4 15 -9 28 -6 13 -24 62 -40 111 -17 48 -44
124 -60 170 -16 45 -77 217 -136 382 -58 165 -111 314 -118 330 -6 17 -12 32
-12 35 0 3 -11 35 -25 73 l-24 67 -142 0 c-79 0 -145 -3 -147 -7z m161 -315
c20 -64 124 -391 130 -405 3 -10 -30 -13 -148 -13 -117 0 -151 3 -148 13 83
262 144 446 148 447 3 0 11 -19 18 -42z"/>
<path d="M1450 1240 l0 -602 353 4 c333 4 355 6 407 26 65 26 106 54 148 103
132 152 102 417 -56 494 l-39 19 42 33 c70 53 98 116 97 220 -1 124 -72 228
-188 274 -57 23 -69 23 -411 27 l-353 4 0 -602z m657 365 c80 -47 72 -171 -13
-215 -22 -11 -74 -16 -216 -18 l-188 -3 0 131 0 132 193 -4 c168 -3 196 -6
224 -23z m-8 -453 c59 -23 85 -60 87 -124 2 -63 -9 -98 -44 -131 -41 -38 -91
-47 -279 -47 l-173 0 0 160 0 161 183 -2 c143 -1 192 -4 226 -17z"/>
</g>
</svg>
